<svg width="98.917" height="100" xmlns="http://www.w3.org/2000/svg">
 <g>
  <title>Layer 1</title>
  <g id="svg_7">
   <g id="svg_1">
    <path id="svg_2" d="m80.679993,22.290037c-0.239319,0 -0.473099,0.00462 -0.717041,0.012938c-3.073311,0.100718 -5.88327,0.70965 -7.628754,1.134703l0,-5.608833c0,-3.226697 -2.000511,-7.718384 -11.532757,-10.799084c-5.899902,-1.901645 -13.661713,-2.951337 -21.850422,-2.951337c-8.190563,0 -15.949604,1.048769 -21.849506,2.951337c-9.535018,3.078852 -11.534608,7.572387 -11.534608,10.799084l0,62.703428c0,4.506477 3.962221,8.682144 11.156682,11.755447c6.324953,2.704628 14.217976,4.19323 22.227432,4.19323c8.008526,0 15.900623,-1.488602 22.227425,-4.19323c7.193535,-3.073303 11.154823,-7.250824 11.154823,-11.755447l0,-5.712326c0.593231,-0.646812 1.216026,-0.833473 3.150932,-1.241882c1.264061,-0.267044 2.833984,-0.596924 4.533264,-1.313049c9.608025,-4.037056 15.45063,-11.687065 16.454124,-21.540871l0.047127,-0.440762c0.513756,-4.941689 1.713135,-16.513256 -4.37249,-23.26326c-2.789635,-3.092712 -6.752777,-4.730085 -11.466232,-4.730085zm11.423729,27.988726c-0.903702,8.854935 -6.324036,14.80011 -13.789238,17.93718c-3.722893,1.566223 -6.920944,0.807602 -9.530388,3.993637c-0.287376,0.353905 -0.853806,1.326897 -0.843636,2.570633l0,5.75206c0,5.169922 -12.977932,11.556786 -28.990372,11.556786c-16.011507,0 -28.992215,-6.386864 -28.992215,-11.556786l0,-62.704353c0,-5.166225 12.980708,-9.357604 28.992215,-9.357604c16.01244,0 28.990372,4.190455 28.990372,9.357604l0,6.946821c0.121048,1.660475 0.897224,3.420744 2.955948,3.420744c0.300316,0 0.632965,-0.036039 0.991486,-0.118277c1.103287,-0.251335 4.466743,-1.259447 8.219208,-1.38419c0.195885,-0.00462 0.385315,-0.009241 0.572891,-0.009241c14.242004,0 11.975372,18.181122 11.423729,23.594986z"/>
    <path id="svg_3" d="m78.19252,31.499796c-1.315819,0 -2.819206,0.109962 -4.535118,0.27536c-2.336861,0.229158 -5.249382,1.12731 -5.716019,4.221872l0,25.603817c0,0 -0.014786,3.176796 2.909752,3.455856c0.09333,0.008308 0.197739,0.012939 0.308624,0.012939c1.817566,0 5.847237,-1.153191 7.85791,-2.432045c10.322296,-6.561497 8.939026,-21.940975 6.303703,-27.431538c-1.233574,-2.850616 -3.449387,-3.706263 -7.128853,-3.706263zm-5.858322,29.003309l0,-23.910084c0.210678,-0.123817 0.755852,-0.347431 1.750107,-0.442608c1.818481,-0.176487 3.085312,-0.255951 4.109138,-0.255951l0.002769,0c1.617043,0 2.291588,0.210674 2.551239,0.338188c0.117348,0.057293 0.291069,0.1423 0.538704,0.717045l0.036034,0.083164l0.037888,0.077618c0.82885,1.727924 1.861916,6.060684 1.303795,10.911816c-0.400101,3.49189 -1.767654,8.220131 -6.003387,10.912739c-0.973923,0.616322 -2.955956,1.264988 -4.326286,1.568073z"/>
    <path id="svg_4" d="m59.832138,14.89876c-0.538708,-0.281828 -1.202152,-0.075772 -1.483986,0.462013c-0.282749,0.537781 -0.075768,1.200308 0.461094,1.482136c1.280693,0.673615 1.732548,1.277002 1.732548,1.619816c0,0.338194 -0.463867,0.981316 -1.901649,1.704826c-3.386551,-2.262938 -10.926598,-3.836554 -19.688202,-3.836554c-8.762535,0 -16.303505,1.573616 -19.68821,3.836554c-1.441481,-0.722588 -1.905342,-1.367558 -1.905342,-1.704826c0,-0.343737 0.458317,-0.950821 1.739941,-1.623512c0.538708,-0.280903 0.744762,-0.945279 0.462936,-1.482138c-0.281826,-0.536858 -0.945278,-0.743839 -1.483984,-0.462011c-1.933985,1.017351 -2.914376,2.217661 -2.914376,3.56951c0,2.176079 2.512424,3.933577 7.467971,5.216122c4.374338,1.131931 10.169827,1.75565 16.321987,1.75565c6.150311,0 11.945797,-0.622793 16.317364,-1.75565c4.956467,-1.282545 7.469818,-3.040043 7.469818,-5.217045c-0.001846,-1.351851 -0.981319,-2.55031 -2.907909,-3.56489z"/>
   </g>
   <g transform="matrix(-0.924025 0 0 -0.924025 74.9587 111.677)" id="svg_5">
    <path id="svg_6" d="m32.891914,37.78447q0,1.558788 -1.091145,2.649929t-2.649921,1.091145t-2.649927,-1.091145t-1.091141,-2.649929t1.091141,-2.649921t2.649927,-1.091145t2.649921,1.091145t1.091145,2.649921zm0,44.892868q0,1.558777 -1.091145,2.64991t-2.649921,1.091164t-2.649927,-1.091164t-1.091141,-2.64991t1.091141,-2.649933t2.649927,-1.091141t2.649921,1.091141t1.091145,2.649933zm24.940479,-4.988106q0,1.558784 -1.091141,2.649925t-2.649925,1.091148t-2.649925,-1.091148t-1.091148,-2.649925t1.091148,-2.649925t2.649925,-1.091141t2.649925,1.091141t1.091141,2.649925zm3.741074,0q0,-2.026421 -1.013199,-3.760559t-2.727875,-2.708374q-0.077934,-11.18425 -8.807098,-16.133369q-2.649933,-1.480843 -7.910812,-3.156532q-4.988098,-1.558777 -6.605328,-2.76683t-1.617241,-3.89695l0,-1.013203q1.714664,-0.974247 2.727875,-2.708389t1.013206,-3.760555q0,-3.117554 -2.182301,-5.299854t-5.299847,-2.182283t-5.299852,2.182283t-2.182287,5.299854q0,2.026413 1.013205,3.760555t2.727867,2.708389l0,31.954975q-1.714661,0.974236 -2.727867,2.708389t-1.013205,3.760559q0,3.117546 2.182287,5.29985t5.299852,2.182281t5.299847,-2.182281t2.182301,-5.29985q0,-2.026413 -1.013206,-3.760559t-2.727875,-2.708389l0,-19.367836q2.104362,1.013206 6.001305,2.22126q2.143326,0.662483 3.409836,1.149597t2.747341,1.208061t2.299206,1.539291t1.578266,1.987442t1.091148,2.708382t0.331238,3.565712q-1.714657,0.974236 -2.727875,2.708374t-1.013195,3.760559q0,3.117554 2.182293,5.299858t5.29985,2.182297t5.29985,-2.182297t2.182289,-5.299858z"/>
   </g>
  </g>
 </g>

</svg>
